<svg version="1.2" xmlns="http://www.w3.org/2000/svg" viewBox="0 0 1550 717" width="1550" height="717">
	<title>logo (6)-svg</title>
	<style>
		.s0 { fill: #231815 } 
		.s1 { fill: #ee7500 } 
		.s2 { fill: #ffffff } 
	</style>
	<path id="Layer" class="s0" d="m316.2 201.4l-41.1 193.3-110.9-168.2c-2.2-3.8-4.9-7.4-8-10.5-3.1-3.1-6.6-5.8-10.4-8-3.8-2.2-7.9-3.9-12.2-5-4.3-1.1-8.7-1.7-13.1-1.6h-25.8l-69.2 325.7h76.6l41.1-193.2 126.3 193.2h54.2l69.3-325.7z"/>
	<path id="Layer" class="s0" d="m477 201.4l-69.2 325.7h76.7l69.3-325.7z"/>
	<path id="Layer" class="s1" d="m1006.7 0h-326l-112 527.1h325.9z"/>
	<path id="Layer" class="s2" d="m754.8 201.5c-36.6 0-58.9 20.2-66.4 55.3l-57.5 270.3h74.6l29.9-141.1h126.9l13-60.9h-126.9l10.4-48.6c0.3-2 0.9-4 1.9-5.7 1-1.8 2.3-3.4 3.8-4.7 1.5-1.3 3.3-2.3 5.2-2.9 1.9-0.7 3.9-1 6-1h113l12.9-60.8z"/>
	<path id="Layer" class="s0" d="m1178.7 433.8l-4.6 3.7q-7.4 5.9-15.7 10.6-8.2 4.6-17.1 8-8.8 3.3-18.1 5.3-9.3 1.9-18.7 2.4c-53 0-74.1-50-63.8-98.3 10.4-48.9 51.2-100.8 106.5-100.8 5.5 0 10.9 0.5 16.3 1.7 5.3 1.1 10.5 2.8 15.5 5.1 5 2.2 9.7 5 14.1 8.2 4.4 3.3 8.4 7 12 11.2l3.1 4.3 18.1-85.4q-7.4-4-15.2-7.1-7.9-3.1-16.1-5.2-8.2-2.1-16.5-3.2-8.4-1.1-16.9-1.2c-91.6-3-177.3 70.5-197.8 173.6-18.6 93.3 35.7 168.7 123.8 168.7q9.5-0.3 18.8-1.6 9.4-1.3 18.6-3.5 9.3-2.2 18.2-5.2 9-3.1 17.6-7z"/>
	<path id="Layer" fill-rule="evenodd" class="s0" d="m1545.8 363.8c-20.8 97.9-105.8 171.6-197.8 171.6-92 0-145.7-73.7-124.9-171.6 20.4-95.7 107.2-170.7 197.7-170.7 90.5 0 145.3 75 125 170.7zm-245.5-2.4c-9.7 45.4 11.7 100.3 63.3 100.3 51.6 0 96.4-54.9 106.1-100.3 9.7-45.7-8.9-94.6-64.6-94.6-55.7 0-95.1 48.9-104.8 94.6z"/>
	<path id="Layer" fill-rule="evenodd" class="s0" d="m27.4 683.3l37.6-66.5h10.3l8.2 66.5 37-65.6h19.7l-57.1 98.3h-13.1l-7.9-63-35.9 63h-13.1l-13.1-98.3h19.7zm206.1-17.4c-1.7 7.1-4.5 13.8-8.3 19.9-3.9 6.1-8.7 11.5-14.4 16-5.6 4.6-11.9 8.1-18.7 10.6-6.8 2.4-14 3.7-21.2 3.9-28.9 0-46.2-22-40-51.1 1.7-6.9 4.6-13.5 8.4-19.5 3.9-6 8.7-11.4 14.3-15.8 5.6-4.5 11.8-8 18.5-10.5 6.7-2.4 13.8-3.8 21-3.9 6.3-0.4 12.6 0.7 18.4 3.3 5.8 2.5 10.9 6.5 14.9 11.4 4 5 6.7 10.8 7.9 17 1.2 6.2 1 12.7-0.8 18.7zm-83.3-0.5c-1.3 3.9-1.7 8-1 12.1 0.6 4 2.3 7.9 4.7 11.2 2.5 3.3 5.7 6 9.4 7.8 3.7 1.8 7.7 2.7 11.8 2.6 4.6-0.3 9.2-1.3 13.4-3 4.3-1.7 8.2-4.1 11.8-7.1 3.5-3 6.4-6.5 8.8-10.5 2.4-3.9 4.1-8.2 5.1-12.7 1.2-3.9 1.5-8 0.8-12-0.7-4-2.4-7.8-4.8-11-2.5-3.2-5.7-5.9-9.3-7.6-3.7-1.8-7.7-2.6-11.8-2.5-4.5 0.2-9 1.2-13.2 2.9-4.3 1.7-8.2 4-11.7 6.9-3.5 3-6.5 6.4-8.9 10.3-2.4 3.9-4.1 8.1-5.1 12.6zm121.6 17.9l37.6-66.5h10.2l8.2 66.5 37-65.7h19.8l-57.1 98.4h-13.1l-7.9-63-35.9 63h-13.1l-13.1-98.4h19.7zm122.5 30.8h-18.8l20.5-96.4h18.8zm43-98.6h12.9l44.3 67.1 13.8-64.9h18.7l-20.9 98.3h-12.9l-44.3-67.1-13.9 65.2h-18.7zm192.2 47q-0.6 4-1.6 7.9-1 3.9-2.5 7.7-1.5 3.7-3.4 7.3-2 3.5-4.3 6.9c-2.6 3.7-5.6 7.1-9 10.1-3.5 2.9-7.2 5.5-11.3 7.6-4 2.1-8.3 3.7-12.7 4.7-4.4 1.1-8.9 1.6-13.5 1.6-29.4 0-46-20.9-39.8-49.9 1.5-7.1 4.1-13.9 7.8-20 3.8-6.2 8.5-11.7 14.1-16.3 5.6-4.6 11.9-8.2 18.6-10.7 6.8-2.5 14-3.8 21.2-3.9 3.8-0.4 7.7-0.1 11.5 0.8 3.7 0.9 7.3 2.4 10.6 4.4 3.2 2.1 6.2 4.6 8.6 7.6 2.5 3 4.4 6.3 5.8 9.9l-18.3 8.8c-0.8-2.2-1.9-4.3-3.4-6.1-1.4-1.9-3.2-3.5-5.1-4.8-2-1.3-4.2-2.2-6.5-2.8-2.3-0.6-4.7-0.8-7-0.6-4.6 0.2-9.2 1.2-13.5 2.9-4.3 1.7-8.2 4.2-11.7 7.2-3.5 3-6.4 6.7-8.7 10.7-2.3 4-3.9 8.4-4.7 12.9-4 18.9 6.3 32.8 24.5 32.8 3.2 0.1 6.4-0.3 9.4-1.2 3.1-0.9 6-2.3 8.7-4.2 2.6-1.8 4.9-4 6.9-6.5 1.9-2.6 3.4-5.4 4.5-8.5h-22.6l3.5-16.3c0 0 43.9 0 43.9 0zm69.8 51.6l17-80.1h-21.5l3.5-16.4h61.8l-3.4 16.4h-21.6l-17.1 80.1zm124.4-59.1l8-37.3h18.7l-20.5 96.4h-18.7l9.1-42.8h-40.6l-9.1 42.8h-18.8l20.5-96.4h18.8l-8 37.3zm64-21l-4.5 21.4h33.1l-3.4 16.3h-33.2l-5.5 26.1h34.4l-3.5 16.3h-53.1l20.5-96.4h53.2l-3.5 16.3c0 0-34.5 0-34.5 0zm124.5 49.3l37.6-66.5h10.2l8.2 66.5 37-65.6h19.8l-57.1 98.3h-13.1l-7.9-63-35.9 63h-13.1l-13.1-98.3h19.7zm206.1-17.4c-1.7 7-4.5 13.7-8.4 19.8-3.8 6.1-8.7 11.6-14.3 16.1-5.6 4.5-12 8.1-18.8 10.5-6.8 2.5-13.9 3.8-21.1 3.9-29 0-46.2-22-40.1-51 1.8-6.9 4.6-13.5 8.5-19.6 3.8-6 8.6-11.3 14.2-15.8 5.6-4.4 11.9-8 18.6-10.4 6.7-2.5 13.8-3.8 20.9-4 6.3-0.4 12.7 0.8 18.5 3.3 5.8 2.6 10.9 6.5 14.8 11.5 4 4.9 6.7 10.8 8 17 1.2 6.2 0.9 12.6-0.8 18.7zm-83.4-0.6c-1.3 3.9-1.6 8.1-1 12.1 0.7 4.1 2.3 7.9 4.8 11.2 2.4 3.3 5.6 6 9.3 7.8 3.7 1.8 7.8 2.7 11.9 2.6 4.6-0.3 9.1-1.3 13.4-3 4.2-1.7 8.2-4.1 11.7-7.1 3.5-2.9 6.5-6.5 8.9-10.4 2.3-3.9 4.1-8.2 5.1-12.7 1.2-3.9 1.4-8 0.7-12-0.7-4-2.3-7.8-4.8-11-2.4-3.3-5.6-5.9-9.3-7.6-3.6-1.8-7.7-2.7-11.7-2.6-4.6 0.3-9.1 1.3-13.3 2.9-4.2 1.7-8.2 4.1-11.7 7-3.4 2.9-6.4 6.4-8.8 10.3-2.4 3.8-4.1 8.1-5.2 12.5zm158.4 48.8h-23l-17.7-38.8h-2.4l-8.3 38.8h-18.7l20.5-96.5h27.8q3.1-0.3 6.2 0 3.1 0.3 6 1.2 3 0.9 5.8 2.3 2.7 1.4 5.2 3.3 1.9 2.2 3.1 4.8 1.3 2.6 1.9 5.5 0.7 2.8 0.6 5.7-0.1 2.9-0.9 5.7c-0.5 3.4-1.7 6.7-3.3 9.8-1.6 3.1-3.6 5.9-6.1 8.3-2.5 2.5-5.3 4.5-8.4 6.1-3.1 1.5-6.4 2.6-9.9 3.1zm-34.9-52c2.4 0.3 4.8 0.2 7.1-0.3 2.4-0.6 4.6-1.5 6.5-2.9 2-1.3 3.7-3.1 5-5 1.4-2 2.3-4.2 2.9-6.6 2-9.5-3-14.4-15-14.4h-5.7l-6.2 29.2zm69.8 35.7h29.5l-3.5 16.3h-48.3l20.6-96.4h18.7zm62-80.1h27.5q4.4-0.3 8.7 0.2 4.3 0.6 8.5 2.1 4.1 1.4 7.9 3.6 3.7 2.3 6.9 5.2c2.3 2.5 4.3 5.2 5.8 8.1 1.6 2.9 2.9 6 3.7 9.2 0.8 3.3 1.2 6.6 1.1 9.9 0 3.3-0.4 6.6-1.3 9.8q-1.3 5.7-3.6 11-2.3 5.2-5.5 10-3.3 4.8-7.4 8.9-4 4.1-8.8 7.3-4 2.9-8.3 5.1-4.4 2.1-9.1 3.6-4.7 1.4-9.5 2-4.9 0.6-9.8 0.5h-27.3zm6.7 80.1c4.9 0.4 9.8 0 14.5-1.4 4.7-1.3 9.1-3.5 13-6.4 4-2.9 7.3-6.5 9.9-10.7 2.6-4.1 4.5-8.7 5.4-13.5q0.9-3.1 0.9-6.3 0.1-3.2-0.6-6.3-0.7-3.2-2.1-6-1.4-2.9-3.4-5.4-2.4-2.3-5.2-4-2.8-1.6-5.9-2.7-3.2-1-6.4-1.3-3.3-0.3-6.5 0.2h-5.1l-13.5 63.8z"/>
</svg>